<svg width="542.225px" height="122px" xmlns="http://www.w3.org/2000/svg" viewBox="-21.11250000000001 14 542.225 122" style="background: rgba(0, 0, 0, 0);" preserveAspectRatio="xMidYMid"><defs><filter id="editing-extrusion" x="-100%" y="-100%" width="300%" height="300%"><feFlood result="color1" flood-color="#444"></feFlood><feConvolveMatrix order="8,8" divisor="1" kernelMatrix="1 0 0 0 0 0 0 0 0 1 0 0 0 0 0 0 0 0 1 0 0 0 0 0 0 0 0 1 0 0 0 0 0 0 0 0 1 0 0 0 0 0 0 0 0 1 0 0 0 0 0 0 0 0 1 0 0 0 0 0 0 0 0 1" in="SourceAlpha" result="extrude"></feConvolveMatrix><feComposite in="color1" in2="extrude" result="comp-extrude" operator="in"></feComposite><feOffset dx="4" dy="4" in="comp-extrude" result="offset-extrude"></feOffset><feMerge><feMergeNode in="offset-extrude"></feMergeNode><feMergeNode in="SourceGraphic"></feMergeNode></feMerge></filter></defs><g filter="url(#editing-extrusion)"><g transform="translate(58.224994003772736, 97.07999992370605)"><path d="M7.68 0L0.64 0L8.32-42.24L22.08-42.24L32.06-13.18L37.38-42.24L44.48-42.18L36.67 0L22.02 0L12.80-27.97L7.68 0ZM59.20 0L45.50 0L53.31-42.05L53.31-42.05Q59.65-42.75 68.90-42.75L68.90-42.75L68.90-42.75Q78.14-42.75 82.43-40.06L82.43-40.06L82.43-40.06Q86.72-37.38 86.72-31.97L86.72-31.97L86.72-31.97Q86.72-26.56 83.94-23.17L83.94-23.17L83.94-23.17Q81.15-19.78 76.35-18.69L76.35-18.69L76.35-18.69Q77.44-13.38 79.94-9.09L79.94-9.09L79.94-9.09Q82.24-5.06 84.93-3.78L84.93-3.78L84.93-3.78Q83.97-1.09 82.02 0.10L82.02 0.10L82.02 0.10Q80.06 1.28 77.28 1.28L77.28 1.28L77.28 1.28Q74.50 1.28 72.32-0.35L72.32-0.35L72.32-0.35Q70.14-1.98 68.42-4.99L68.42-4.99L68.42-4.99Q64.77-11.52 64.38-21.82L64.38-21.82L64.83-21.82L64.83-21.82Q69.57-21.95 71.94-24.42L71.94-24.42L71.94-24.42Q74.30-26.88 74.30-32.06L74.30-32.06L74.30-32.06Q74.30-38.53 68.86-38.78L68.86-38.78L67.46-38.78L67.46-38.78Q66.88-38.78 66.56-38.72L66.56-38.72L59.20 0ZM116.42-9.86L116.42-9.86L116.42-9.86Q117.63-8.32 117.63-5.34L117.63-5.34L117.63-5.34Q117.63-2.37 115.36-0.54L115.36-0.54L115.36-0.54Q113.09 1.28 109.12 1.28L109.12 1.28L109.12 1.28Q106.82 1.28 103.23 0.77L103.23 0.77L103.23 0.77Q96.19-0.32 94.18-0.32L94.18-0.32L94.18-0.32Q92.16-0.32 91.33-0.22L91.33-0.22L91.33-0.22Q90.50-0.13 89.15 0L89.15 0L96.90-42.24L110.91-42.24L104.51-7.04L104.51-7.04Q105.34-6.91 106.11-6.91L106.11-6.91L107.71-6.91L107.71-6.91Q113.09-6.91 116.42-9.86ZM151.04-33.92L151.04-33.92L151.04-33.92Q145.86-33.92 142.08-35.65L142.08-35.65L140.03-25.28L152.38-25.28L152.38-25.28Q152.38-21.89 150.69-19.74L150.69-19.74L150.69-19.74Q148.99-17.60 145.92-17.60L145.92-17.60L145.92-17.60Q142.59-17.60 139.52-18.82L139.52-18.82L139.52-18.82Q138.88-19.07 138.82-19.14L138.82-19.14L135.17 0L121.22 0L129.34-42.24L157.89-42.24L157.89-42.24Q157.89-38.34 156.06-36.13L156.06-36.13L156.06-36.13Q154.24-33.92 151.04-33.92ZM158.62-1.92L158.62-1.92L158.62-1.92Q157.12-3.58 156.45-6.21L156.45-6.21L156.45-6.21Q155.78-8.83 155.78-13.12L155.78-13.12L155.78-13.12Q155.78-17.41 157.25-21.31L157.25-21.31L157.25-21.31Q158.72-25.22 161.41-28.03L161.41-28.03L161.41-28.03Q166.91-33.92 176-33.92L176-33.92L176-33.92Q179.26-33.92 181.63-32.83L181.63-32.83L192.58-33.92L187.84-8.96L187.84-8.96Q187.65-8.19 187.65-6.78L187.65-6.78L187.65-6.78Q187.65-5.38 188.51-4.48L188.51-4.48L188.51-4.48Q189.38-3.58 190.66-3.46L190.66-3.46L190.66-3.46Q190.02-1.28 187.68 0L187.68 0L187.68 0Q185.34 1.28 182.72 1.28L182.72 1.28L182.72 1.28Q180.10 1.28 178.34 0.29L178.34 0.29L178.34 0.29Q176.58-0.70 176.06-2.37L176.06-2.37L176.06-2.37Q175.04-0.77 172.86 0.26L172.86 0.26L172.86 0.26Q170.69 1.28 167.78 1.28L167.78 1.28L167.78 1.28Q164.86 1.28 162.50 0.51L162.50 0.51L162.50 0.51Q160.13-0.26 158.62-1.92ZM172.13-27.90L172.13-27.90L172.13-27.90Q171.39-26.75 170.75-24.80L170.75-24.80L170.75-24.80Q170.11-22.85 169.06-17.63L169.06-17.63L169.06-17.63Q168-12.42 168-8.70L168-8.70L168-8.70Q168-4.99 168.58-3.90L168.58-3.90L168.58-3.90Q169.15-2.82 170.18-2.82L170.18-2.82L170.18-2.82Q172.22-2.82 173.73-4.77L173.73-4.77L173.73-4.77Q175.23-6.72 175.81-10.18L175.81-10.18L179.20-28.93L179.20-28.93Q177.86-30.08 176.29-30.08L176.29-30.08L176.29-30.08Q174.72-30.08 173.79-29.57L173.79-29.57L173.79-29.57Q172.86-29.06 172.13-27.90ZM223.10 1.28L223.10 1.28L223.10 1.28Q215.36 1.28 215.36-4.74L215.36-4.74L215.36-4.74Q215.42-6.40 215.94-9.22L215.94-9.22L217.09-15.10L217.09-15.10Q218.82-23.42 218.82-25.28L218.82-25.28L218.82-25.28Q218.82-28.99 216.64-28.99L216.64-28.99L216.64-28.99Q212.99-28.99 211.07-19.46L211.07-19.46L207.30 0L194.43 1.28L201.09-32.70L211.58-33.92L210.56-27.65L210.56-27.65Q213.57-33.92 222.78-33.92L222.78-33.92L222.78-33.92Q227.26-33.92 229.15-32.03L229.15-32.03L229.15-32.03Q231.04-30.14 231.04-25.92L231.04-25.92L231.04-25.92Q231.04-21.95 228.99-12.67L228.99-12.67L228.99-12.67Q228.03-8.51 228.03-6.94L228.03-6.94L228.03-6.94Q228.03-5.38 228.90-4.48L228.90-4.48L228.90-4.48Q229.76-3.58 231.04-3.46L231.04-3.46L231.04-3.46Q230.40-1.28 228.19 0L228.19 0L228.19 0Q225.98 1.28 223.10 1.28ZM249.70 0.16L249.70 0.16L249.70 0.16Q246.27-0.45 244.48-0.70L244.48-0.70L244.48-0.70Q242.69-0.96 240.80-0.96L240.80-0.96L240.80-0.96Q238.91-0.96 237.95 0L237.95 0L237.95 0Q236.48-1.09 235.71-4.54L235.71-4.54L235.71-4.54Q235.46-5.50 235.46-7.10L235.46-7.10L235.46-7.10Q235.46-10.56 239.42-13.95L239.42-13.95L259.39-30.34L259.39-30.34Q251.14-31.68 247.81-31.68L247.81-31.68L247.81-31.68Q244.48-31.68 241.41-30.21L241.41-30.21L241.41-30.21Q239.68-33.02 239.68-36.29L239.68-36.29L239.68-36.29Q239.68-39.55 242.08-41.22L242.08-41.22L242.08-41.22Q244.48-42.88 248.51-42.88L248.51-42.88L248.51-42.88Q250.30-42.88 252.22-42.62L252.22-42.62L252.22-42.62Q254.14-42.37 256.06-42.11L256.06-42.11L259.84-41.54L259.84-41.54Q261.70-41.28 264.10-41.28L264.10-41.28L264.10-41.28Q266.50-41.28 269.18-41.92L269.18-41.92L269.18-41.92Q271.74-39.68 271.74-35.97L271.74-35.97L271.74-35.97Q271.74-31.49 268.67-29.06L268.67-29.06L246.91-11.65L246.91-11.65Q251.58-10.37 259.33-10.37L259.33-10.37L259.33-10.37Q263.17-10.37 265.60-12.29L265.60-12.29L265.60-12.29Q266.69-10.88 266.98-9.70L266.98-9.70L266.98-9.70Q267.26-8.51 267.26-6.82L267.26-6.82L267.26-6.82Q267.26-5.12 266.69-3.74L266.69-3.74L266.69-3.74Q266.11-2.37 264.90-1.34L264.90-1.34L264.90-1.34Q262.46 0.77 257.09 0.77L257.09 0.77L257.09 0.77Q253.12 0.77 249.70 0.16ZM287.04 1.28L287.04 1.28L287.04 1.28Q272.96 1.28 272.96-11.97L272.96-11.97L272.96-11.97Q272.96-21.38 278.14-27.46L278.14-27.46L278.14-27.46Q283.65-33.92 293.18-33.92L293.18-33.92L293.18-33.92Q300.10-33.92 303.62-30.72L303.62-30.72L303.62-30.72Q307.14-27.52 307.14-20.80L307.14-20.80L307.14-20.80Q307.14-10.56 301.63-4.61L301.63-4.61L301.63-4.61Q296.26 1.28 287.04 1.28ZM288.70-26.56L288.70-26.56L288.70-26.56Q287.94-24.83 287.33-22.24L287.33-22.24L287.33-22.24Q286.72-19.65 285.95-15.55L285.95-15.55L285.95-15.55Q285.18-11.46 285.18-6.40L285.18-6.40L285.18-6.40Q285.18-4.74 285.73-3.65L285.73-3.65L285.73-3.65Q286.27-2.56 287.74-2.56L287.74-2.56L287.74-2.56Q289.22-2.56 290.14-3.26L290.14-3.26L290.14-3.26Q291.07-3.97 291.78-5.63L291.78-5.63L291.78-5.63Q293.06-8.58 294.08-14.05L294.08-14.05L294.08-14.05Q295.10-19.52 295.20-21.89L295.20-21.89L295.20-21.89Q295.30-24.26 295.30-26.02L295.30-26.02L295.30-26.02Q295.30-27.78 294.78-28.93L294.78-28.93L294.78-28.93Q294.27-30.08 292.83-30.08L292.83-30.08L292.83-30.08Q291.39-30.08 290.43-29.18L290.43-29.18L290.43-29.18Q289.47-28.29 288.70-26.56ZM337.98 1.28L337.98 1.28L337.98 1.28Q330.24 1.28 330.24-4.74L330.24-4.74L330.24-4.74Q330.30-6.40 330.82-9.22L330.82-9.22L331.97-15.10L331.97-15.10Q333.70-23.42 333.70-25.28L333.70-25.28L333.70-25.28Q333.70-28.99 331.52-28.99L331.52-28.99L331.52-28.99Q327.87-28.99 325.95-19.46L325.95-19.46L322.18 0L309.31 1.28L315.97-32.70L326.46-33.92L325.44-27.65L325.44-27.65Q328.45-33.92 337.66-33.92L337.66-33.92L337.66-33.92Q342.14-33.92 344.03-32.03L344.03-32.03L344.03-32.03Q345.92-30.14 345.92-25.92L345.92-25.92L345.92-25.92Q345.92-21.95 343.87-12.67L343.87-12.67L343.87-12.67Q342.91-8.51 342.91-6.94L342.91-6.94L342.91-6.94Q342.91-5.38 343.78-4.48L343.78-4.48L343.78-4.48Q344.64-3.58 345.92-3.46L345.92-3.46L345.92-3.46Q345.28-1.28 343.07 0L343.07 0L343.07 0Q340.86 1.28 337.98 1.28ZM376.96-10.82L376.96-10.82L376.96-10.82Q378.56-9.73 378.56-7.33L378.56-7.33L378.56-7.33Q378.56-4.93 377.34-3.39L377.34-3.39L377.34-3.39Q376.13-1.86 374.14-0.83L374.14-0.83L374.14-0.83Q370.05 1.28 365.63 1.28L365.63 1.28L365.63 1.28Q361.22 1.28 358.62 0.32L358.62 0.32L358.62 0.32Q356.03-0.64 354.30-2.43L354.30-2.43L354.30-2.43Q350.91-5.82 350.91-12.03L350.91-12.03L350.91-12.03Q350.91-21.70 356.16-27.58L356.16-27.58L356.16-27.58Q361.79-33.92 371.58-33.92L371.58-33.92L371.58-33.92Q377.66-33.92 380.67-31.36L380.67-31.36L380.67-31.36Q382.91-29.44 382.91-26.30L382.91-26.30L382.91-26.30Q382.91-15.04 363.46-15.04L363.46-15.04L363.46-15.04Q363.20-13.38 363.20-11.97L363.20-11.97L363.20-11.97Q363.20-9.02 364.51-7.90L364.51-7.90L364.51-7.90Q365.82-6.78 368.26-6.78L368.26-6.78L368.26-6.78Q370.69-6.78 373.28-7.90L373.28-7.90L373.28-7.90Q375.87-9.02 376.96-10.82ZM363.90-17.79L363.90-17.79L363.90-17.79Q368.45-17.79 371.07-20.61L371.07-20.61L371.07-20.61Q373.70-23.30 373.70-27.58L373.70-27.58L373.70-27.58Q373.70-29.06 373.15-29.86L373.15-29.86L373.15-29.86Q372.61-30.66 371.52-30.66L371.52-30.66L371.52-30.66Q370.43-30.66 369.50-30.24L369.50-30.24L369.50-30.24Q368.58-29.82 367.62-28.42L367.62-28.42L367.62-28.42Q365.25-25.22 363.90-17.79Z" fill="#ccc"></path></g></g><style>text {
  font-size: 64px;
  font-family: Arial Black;
  dominant-baseline: central;
  text-anchor: middle;
}</style></svg>